<?xml version="1.0"?>
<svg xmlns="http://www.w3.org/2000/svg" height="512px" viewBox="0 -57 512 511" width="512px" class=""><g><path d="m472.707031 67.339844v291.027344h-433.40625v-291.027344c0-32.71875 26.523438-59.238282 59.238281-59.238282h314.925782c32.71875 0 59.242187 26.519532 59.242187 59.238282zm0 0" fill="#b7d0e5" data-original="#B7D0E5" class="active-path" data-old_color="#b7d0e5" style="fill:#4D5154"/><path d="m39.300781 310.21875h433.40625v45.613281h-433.40625zm0 0" fill="#86a4bc" data-original="#86A4BC" class="" style="fill:#343C42" data-old_color="#86a4bc"/><path d="m504.398438 326.441406v21.503906c0 23.402344-18.96875 42.359376-42.359376 42.359376h-412.074218c-23.398438 0-42.359375-18.957032-42.359375-42.359376v-21.503906zm0 0" fill="#86a4bc" data-original="#86A4BC" class="" style="fill:#343C42" data-old_color="#86a4bc"/><path d="m504.398438 326.441406v21.503906c0 23.402344-18.96875 42.359376-42.359376 42.359376h-364.523437c-23.390625 0-42.359375-18.957032-42.359375-42.359376v-21.503906zm0 0" fill="#b7d0e5" data-original="#B7D0E5" class="active-path" data-old_color="#b7d0e5" style="fill:#4D5154"/><path d="m299.621094 358.371094h-87.242188c-17.480468 0-31.652344-14.171875-31.652344-31.652344v-.28125h150.550782v.28125c-.003906 17.480469-14.171875 31.652344-31.65625 31.652344zm0 0" fill="#86a4bc" data-original="#86A4BC" class="" style="fill:#343C42" data-old_color="#86a4bc"/><path d="m442.289062 67.339844v195.535156c0 18.308594-14.84375 33.152344-33.152343 33.152344h-306.277344c-18.300781 0-33.144531-14.84375-33.144531-33.152344v-195.535156c0-15.917969 12.90625-28.824219 28.824218-28.824219h314.925782c15.917968 0 28.824218 12.90625 28.824218 28.824219zm0 0" fill="#f96065" data-original="#F96065" class="" style="fill:#50FF40" data-old_color="#f96065"/><path d="m394.386719 38.515625-125.34375 257.511719h-35.101563l125.34375-257.511719zm0 0" fill="#ff9fa6" data-original="#FF9FA6" class="" style="fill:#9FFF97" data-old_color="#ff9fa6"/><path d="m328.847656 38.515625-125.332031 257.511719h-80.429687l125.34375-257.511719zm0 0" fill="#ff9fa6" data-original="#FF9FA6" class="" style="fill:#9FFF97" data-old_color="#ff9fa6"/><path d="m449.890625 262.871094v-195.527344c0-20.085938-16.339844-36.429688-36.425781-36.429688h-242.625c-4.199219 0-7.601563 3.40625-7.601563 7.605469s3.402344 7.605469 7.601563 7.605469h242.625c11.699218 0 21.21875 9.515625 21.21875 21.21875v195.527344c0 14.085937-11.460938 25.546875-25.546875 25.546875h-306.273438c-14.085937 0-25.546875-11.460938-25.546875-25.546875v-195.527344c0-11.703125 9.519532-21.21875 21.21875-21.21875h41.886719c4.199219 0 7.605469-3.40625 7.605469-7.605469s-3.40625-7.605469-7.605469-7.605469h-41.886719c-20.085937 0-36.425781 16.34375-36.425781 36.429688v195.527344c0 22.472656 18.28125 40.753906 40.753906 40.753906h306.273438c22.472656 0 40.753906-18.28125 40.753906-40.753906zm0 0" data-original="#000000" class="" style="fill:#141414" data-old_color="#000000"/><path d="m504.394531 318.832031h-24.089843v-251.488281c0-36.859375-29.984376-66.84375-66.839844-66.84375h-314.929688c-36.855468 0-66.839844 29.984375-66.839844 66.84375v251.488281h-24.089843c-4.199219 0-7.605469 3.40625-7.605469 7.605469v21.507812c0 27.550782 22.414062 49.964844 49.964844 49.964844h347.980468c4.199219 0 7.601563-3.402344 7.601563-7.601562 0-4.199219-3.402344-7.605469-7.601563-7.605469h-347.980468c-19.164063 0-34.757813-15.589844-34.757813-34.757813v-13.902343h158.609375c3.441406 18.15625 19.417969 31.933593 38.5625 31.933593h87.246094c19.140625 0 35.121094-13.777343 38.5625-31.933593h158.605469v13.902343c0 19.167969-15.59375 34.757813-34.757813 34.757813h-33.671875c-4.203125 0-7.605469 3.40625-7.605469 7.605469 0 4.199218 3.402344 7.601562 7.605469 7.601562h33.671875c27.550782 0 49.964844-22.414062 49.964844-49.964844v-21.507812c0-4.199219-3.40625-7.605469-7.605469-7.605469zm-457.492187-251.488281c0-28.472656 23.164062-51.636719 51.632812-51.636719h314.929688c28.46875 0 51.632812 23.164063 51.632812 51.636719v251.488281h-418.195312zm252.71875 283.425781h-87.242188c-10.710937 0-19.804687-7.035156-22.910156-16.726562h133.0625c-3.101562 9.691406-12.199219 16.726562-22.910156 16.726562zm0 0" data-original="#000000" class="" style="fill:#141414" data-old_color="#000000"/></g> </svg>
